<svg width="15" height="15" viewBox="0 0 15 15" xmlns="http://www.w3.org/2000/svg">
<path d="M8.9375 3L10.75 4.8125M4.375 4.375H2.5C2.33424 4.375 2.17527 4.44085 2.05806 4.55806C1.94085 4.67527 1.875 4.83424 1.875 5V11.25C1.875 11.625 2.125 11.875 2.5 11.875H9.375C9.75 11.875 10 11.625 10 11.25V8.4375M11.5 2.1875C11.633 2.3048 11.7395 2.44906 11.8125 2.6107C11.8855 2.77234 11.9232 2.94765 11.9232 3.125C11.9232 3.30234 11.8855 3.47766 11.8125 3.6393C11.7395 3.80093 11.633 3.9452 11.5 4.0625L7.25 8.3125L5 8.75L5.4375 6.5L9.75 2.25C9.98366 2.02096 10.2978 1.89268 10.625 1.89268C10.9522 1.89268 11.2663 2.02096 11.5 2.25V2.1875Z" stroke-width="1.25" stroke-linecap="round" stroke-linejoin="round"/>
</svg>
