<svg width="13" height="15" viewBox="0 0 13 15" xmlns="http://www.w3.org/2000/svg">
<path d="M5.09375 0.9375C4.96943 0.9375 4.8502 0.986886 4.76229 1.07479C4.67439 1.1627 4.625 1.28193 4.625 1.40625C4.625 1.53057 4.67439 1.6498 4.76229 1.73771C4.8502 1.82561 4.96943 1.875 5.09375 1.875H7.90625C8.03057 1.875 8.1498 1.82561 8.23771 1.73771C8.32561 1.6498 8.375 1.53057 8.375 1.40625C8.375 1.28193 8.32561 1.1627 8.23771 1.07479C8.1498 0.986886 8.03057 0.9375 7.90625 0.9375H5.09375ZM6.5 5.15625C6.62432 5.15625 6.74355 5.20564 6.83146 5.29354C6.91936 5.38145 6.96875 5.50068 6.96875 5.625V8.4375C6.96875 8.56182 6.91936 8.68105 6.83146 8.76896C6.74355 8.85686 6.62432 8.90625 6.5 8.90625C6.37568 8.90625 6.25645 8.85686 6.16854 8.76896C6.08064 8.68105 6.03125 8.56182 6.03125 8.4375V5.625C6.03125 5.50068 6.08064 5.38145 6.16854 5.29354C6.25645 5.20564 6.37568 5.15625 6.5 5.15625ZM12.125 8.4375C12.125 11.5439 9.60641 14.0625 6.5 14.0625C3.39359 14.0625 0.875 11.5439 0.875 8.4375C0.875 5.33109 3.39359 2.8125 6.5 2.8125C9.60641 2.8125 12.125 5.33109 12.125 8.4375ZM11.1875 8.4375C11.1875 5.84859 9.08891 3.75 6.5 3.75C3.91109 3.75 1.8125 5.84859 1.8125 8.4375C1.8125 11.0264 3.91109 13.125 6.5 13.125C9.08891 13.125 11.1875 11.0264 11.1875 8.4375ZM11.5194 2.94984C11.4761 2.90507 11.4244 2.86936 11.3672 2.8448C11.31 2.82023 11.2485 2.8073 11.1863 2.80676C11.124 2.80622 11.0623 2.81808 11.0047 2.84165C10.9471 2.86522 10.8948 2.90002 10.8508 2.94403C10.8067 2.98805 10.7719 3.04038 10.7484 3.09799C10.7248 3.1556 10.7129 3.21732 10.7135 3.27956C10.714 3.3418 10.7269 3.40331 10.7515 3.4605C10.7761 3.51769 10.8118 3.56942 10.8566 3.61266L11.7941 4.55016C11.8376 4.59368 11.8893 4.62819 11.9462 4.65174C12.0031 4.67528 12.0641 4.68738 12.1256 4.68736C12.1872 4.68734 12.2482 4.67519 12.305 4.65161C12.3619 4.62803 12.4136 4.59347 12.4571 4.54992C12.5006 4.50637 12.5351 4.45467 12.5587 4.39778C12.5822 4.34089 12.5943 4.27992 12.5943 4.21835C12.5943 4.15678 12.5821 4.09582 12.5586 4.03894C12.535 3.98207 12.5004 3.9304 12.4569 3.88687L11.5194 2.94984Z"/>
</svg>
